<svg xmlns="http://www.w3.org/2000/svg" width="15.246" height="16.415" viewBox="0 0 15.246 16.415">
  <g id="_004-monthly-calendar" data-name="004-monthly-calendar" transform="translate(-12.885)">
    <g id="Group_132" data-name="Group 132" transform="translate(12.885)">
      <g id="Group_131" data-name="Group 131" transform="translate(0)">
        <path id="Path_26" data-name="Path 26" d="M27,1.986H25.749V1.134A1.134,1.134,0,0,0,24.614,0h-.045a1.134,1.134,0,0,0-1.134,1.134v.852H17.581V1.134A1.134,1.134,0,0,0,16.447,0H16.4a1.134,1.134,0,0,0-1.134,1.134v.852H14.019A1.134,1.134,0,0,0,12.885,3.12v12.16a1.134,1.134,0,0,0,1.134,1.134H27a1.134,1.134,0,0,0,1.134-1.134V3.12A1.134,1.134,0,0,0,27,1.986Zm-.771,12.637H14.791V5.412H26.225Z" transform="translate(-12.885)" fill="#adb5bd"/>
        <path id="Path_27" data-name="Path 27" d="M85.318,161.973h1.974a.182.182,0,0,0,.181-.182v-1.974a.182.182,0,0,0-.181-.182H85.318a.182.182,0,0,0-.182.182v1.974A.182.182,0,0,0,85.318,161.973Z" transform="translate(-81.858 -152.393)" fill="#adb5bd"/>
        <path id="Path_28" data-name="Path 28" d="M155.317,161.973h1.974a.182.182,0,0,0,.182-.182v-1.974a.182.182,0,0,0-.182-.182h-1.974a.182.182,0,0,0-.181.182v1.974A.182.182,0,0,0,155.317,161.973Z" transform="translate(-148.681 -152.393)" fill="#adb5bd"/>
        <path id="Path_29" data-name="Path 29" d="M225.318,161.973h1.974a.181.181,0,0,0,.181-.182v-1.974a.181.181,0,0,0-.181-.182h-1.974a.182.182,0,0,0-.182.182v1.974A.182.182,0,0,0,225.318,161.973Z" transform="translate(-215.505 -152.393)" fill="#adb5bd"/>
        <path id="Path_30" data-name="Path 30" d="M85.318,231.973h1.974a.182.182,0,0,0,.181-.182v-1.974a.182.182,0,0,0-.181-.182H85.318a.182.182,0,0,0-.182.182v1.974A.182.182,0,0,0,85.318,231.973Z" transform="translate(-81.858 -219.216)" fill="#adb5bd"/>
        <path id="Path_31" data-name="Path 31" d="M155.317,231.973h1.974a.182.182,0,0,0,.182-.182v-1.974a.182.182,0,0,0-.182-.182h-1.974a.182.182,0,0,0-.181.182v1.974A.182.182,0,0,0,155.317,231.973Z" transform="translate(-148.681 -219.216)" fill="#adb5bd"/>
        <path id="Path_32" data-name="Path 32" d="M225.318,231.973h1.974a.181.181,0,0,0,.181-.182v-1.974a.181.181,0,0,0-.181-.182h-1.974a.182.182,0,0,0-.182.182v1.974A.182.182,0,0,0,225.318,231.973Z" transform="translate(-215.505 -219.216)" fill="#adb5bd"/>
      </g>
    </g>
  </g>
</svg>
