<svg xmlns="http://www.w3.org/2000/svg" width="20.93" height="19.197" viewBox="0 0 20.93 19.197">
  <path id="_003-shopping-cart" data-name="003-shopping-cart" d="M19.875,24.8H3.669l-.241-2.684a.851.851,0,0,0-.848-.775H.851a.851.851,0,1,0,0,1.7H1.8l.979,10.907a3.275,3.275,0,0,0,1.226,2.219,2.58,2.58,0,1,0,4.459.71h4.659a2.581,2.581,0,1,0,2.427-1.7H6.045a1.581,1.581,0,0,1-1.453-.958l13.6-.8a.851.851,0,0,0,.776-.643l1.73-6.918a.852.852,0,0,0-.826-1.058ZM6.04,38.633a.878.878,0,1,1,.878-.878A.879.879,0,0,1,6.04,38.633Zm9.512,0a.878.878,0,1,1,.878-.878A.879.879,0,0,1,15.552,38.633Zm1.92-6.88-13.109.77L3.822,26.5H18.785Z" transform="translate(0.1 -21.238)" fill="#343a40" stroke="#fff" stroke-width="0.2"/>
</svg>
