<svg xmlns="http://www.w3.org/2000/svg" width="14.357" height="20.084" viewBox="0 0 14.357 20.084">
  <g id="facial-roller" transform="translate(-73)">
    <path id="Path_23" data-name="Path 23" d="M85.67,57c-.01,0-.007,1.177-.007,1.177.315,0,.516.346.516.667v.941A1.207,1.207,0,0,1,85.4,60.83L81.87,61.868a1.655,1.655,0,0,0-1.107,1.28l-.153,1.07h-.862l-.153-1.07a1.655,1.655,0,0,0-1.107-1.28L74.959,60.83a1.207,1.207,0,0,1-.782-1.045v-.941a.613.613,0,0,1,.51-.667c.01,0,.007-1.177.007-1.177A1.773,1.773,0,0,0,73,58.844v.941a2.371,2.371,0,0,0,1.627,2.174L78.155,63a.5.5,0,0,1,.274.317l.129.906a.588.588,0,0,0-.538.586v1.608h4.315V64.806a.588.588,0,0,0-.538-.586l.129-.906A.5.5,0,0,1,82.2,63l3.528-1.038a2.37,2.37,0,0,0,1.627-2.174v-.941A1.772,1.772,0,0,0,85.67,57Z" transform="translate(0 -54.764)" fill="#adb5bd"/>
    <path id="Path_24" data-name="Path 24" d="M146.456,4.586a8.579,8.579,0,0,0,4.019,1.023h0a8.579,8.579,0,0,0,4.019-1.023.588.588,0,0,0,.289-.507V1.53a.588.588,0,0,0-.289-.507A8.578,8.578,0,0,0,150.475,0h0a8.58,8.58,0,0,0-4.019,1.023.588.588,0,0,0-.289.507V4.08A.588.588,0,0,0,146.456,4.586Z" transform="translate(-70.297)" fill="#adb5bd"/>
    <path id="Path_25" data-name="Path 25" d="M201,332.413a1.846,1.846,0,0,0,1.844,1.844h.628a1.846,1.846,0,0,0,1.844-1.844V327H201Z" transform="translate(-122.979 -314.173)" fill="#adb5bd"/>
  </g>
</svg>
