<svg xmlns="http://www.w3.org/2000/svg" width="33.015" height="24.761" viewBox="0 0 33.015 24.761">
  <g id="Group_49" data-name="Group 49" transform="translate(-605.14 -590.12)">
    <g id="coupon" transform="translate(605.14 530.708)">
      <path id="Path_5" data-name="Path 5" d="M29.919,84.172H3.1a3.1,3.1,0,0,1-3.1-3.1V75.918a1.031,1.031,0,0,1,1.032-1.032,3.1,3.1,0,1,0,0-6.19A1.031,1.031,0,0,1,0,67.665V62.506a3.1,3.1,0,0,1,3.1-3.1H29.92a3.1,3.1,0,0,1,3.1,3.1v5.159A1.031,1.031,0,0,1,31.983,68.7a3.1,3.1,0,0,0,0,6.19,1.031,1.031,0,0,1,1.032,1.032v5.159a3.1,3.1,0,0,1-3.1,3.1ZM2.063,76.846v4.231A1.032,1.032,0,0,0,3.1,82.109H29.92a1.032,1.032,0,0,0,1.032-1.032V76.846a5.159,5.159,0,0,1,0-10.11V62.506a1.032,1.032,0,0,0-1.032-1.032H3.1a1.032,1.032,0,0,0-1.032,1.032v4.231a5.159,5.159,0,0,1,0,10.11Z" transform="translate(0)" fill="#e9ecef"/>
    </g>
    <path id="Path_6" data-name="Path 6" d="M2153.57,1598.235h-6.391l-.493,1.8H2141.7v3.53h4.577l-.695,1.867H2141.7v7.553l6.5-.985v-6.807h3.712l.516-1.628h-4.506v-3.741h5.325Z" transform="translate(-1526 -1003)" fill="#e9ecef"/>
  </g>
</svg>
