<svg xmlns="http://www.w3.org/2000/svg" width="24" height="24" viewBox="0 0 24 24">
  <g id="_34-Add-image" data-name="34-Add-image" transform="translate(-2 -2)">
    <path id="Path_3" data-name="Path 3" d="M17,24H5a1,1,0,0,1-1-1V5A1,1,0,0,1,5,4H23a1,1,0,0,1,1,1V17a1,1,0,0,0,2,0V5a3,3,0,0,0-3-3H5A3,3,0,0,0,2,5V23a3,3,0,0,0,3,3H17a1,1,0,0,0,0-2Z" fill="#adb5bd"/>
    <circle id="Ellipse_3" data-name="Ellipse 3" cx="2.5" cy="2.5" r="2.5" transform="translate(8.5 6)" fill="#adb5bd"/>
    <path id="Path_4" data-name="Path 4" d="M7.29,14.29,6,15.59V22H22V15.59l-4.29-4.3a1,1,0,0,0-1.42,0L11,16.59l-2.29-2.3a1,1,0,0,0-1.42,0Z" fill="#adb5bd"/>
  </g>
</svg>
