<svg xmlns="http://www.w3.org/2000/svg" width="13.065" height="19" viewBox="0 0 13.065 19">
  <g id="_011-pin" data-name="011-pin" transform="translate(-79.968 0.001)">
    <path id="Path_8" data-name="Path 8" d="M92.125,3.253A6.448,6.448,0,0,0,86.646,0c-.1,0-.2,0-.292,0a6.448,6.448,0,0,0-5.479,3.252,6.615,6.615,0,0,0-.086,6.536L85.5,18.413l.006.011a1.145,1.145,0,0,0,1.987,0l.006-.011,4.712-8.624a6.615,6.615,0,0,0-.086-6.536ZM86.5,8.609a2.672,2.672,0,1,1,2.672-2.672A2.675,2.675,0,0,1,86.5,8.609Z" transform="translate(0 0)" fill="#adb5bd"/>
  </g>
</svg>
