<svg xmlns="http://www.w3.org/2000/svg" width="16.077" height="19" viewBox="0 0 16.077 19">
  <g id="_001-avatar" data-name="001-avatar" transform="translate(0 0)">
    <g id="Group_1" data-name="Group 1" transform="translate(0 0)">
      <path id="Path_1" data-name="Path 1" d="M50.288,8.81a4.872,4.872,0,1,0-5.729,0,8.052,8.052,0,0,0-5.174,7.511A2.683,2.683,0,0,0,42.064,19H52.782a2.683,2.683,0,0,0,2.679-2.679A8.052,8.052,0,0,0,50.288,8.81ZM44.013,4.872a3.41,3.41,0,1,1,3.41,3.41A3.414,3.414,0,0,1,44.013,4.872Zm8.769,12.667H42.064a1.219,1.219,0,0,1-1.218-1.218,6.577,6.577,0,0,1,13.154,0A1.219,1.219,0,0,1,52.782,17.538Z" transform="translate(-39.385)" fill="#343a40"/>
    </g>
  </g>
</svg>
